# xmcd
#
# Track frame offsets:
#	150
#	16154
#	34359
#	54654
#	72372
#	90661
#	106275
#	137326
#	152508
#	171563
#	188905
#	202847
#	226179
#	240678
#	259053
#
# Disc length: 3734 seconds
#
# Revision: 1
# Processed by: cddbd v1.5.2PL0 Copyright (c) Steve Scherf et al.
# Submitted via: audiograbber 1.83.01
#
DISCID=c30e940f
DTITLE=Rodrigo Nesio - and Duocondé Blues
DYEAR=2008
DGENRE=Blues
TTITLE0=No More Change
TTITLE1=Do Something
TTITLE2=Tell me You Can't Live Without Me
TTITLE3=It's a Question Of...
TTITLE4=The Jump
TTITLE5=Almost There
TTITLE6=Longing Blues
TTITLE7=Dusty Ride
TTITLE8=Inner
TTITLE9=Get Yourself a Life
TTITLE10=Live This Reckless Life
TTITLE11=Stop
TTITLE12=I'm Gonna Take the Next Train
TTITLE13=The Jump (old version)
TTITLE14=Lost Time
EXTD=The Brasilian, Minas Gerais, Barbacena - Blues Band
EXTT0=
EXTT1=
EXTT2=
EXTT3=
EXTT4=
EXTT5=
EXTT6=
EXTT7=
EXTT8=
EXTT9=
EXTT10=
EXTT11=
EXTT12=
EXTT13=
EXTT14=
PLAYORDER=
